# xmcd CD database file
#
# Track frame offsets:
#	150
#	15172
#	30724
#	51793
#	64947
#	85357
#	105106
#	127665
#	150180
#	164009
#	181768
#	202163
#	228508
#	235979
#	250780
#
# Disc length: 3613 seconds
#
# Revision: 0
# Processed by: cddbd v1.5.1PL0 Copyright (c) Steve Scherf et al.
# Submitted via: CDex 1.50
#
DISCID=b00e1b0f
DTITLE=Andrei Pushkarev - Vibraphone - BACH-VIBRATIONS
DYEAR=2005
DGENRE=Jazz
TTITLE0=Invention #1 c-dur BWV 772 (inspired by Bill Evans)
TTITLE1=Invention #2 c-moll BWV 773 (inspired by Michael Camilo)
TTITLE2=Invention #3 d-dur BWV 774 (inspired by Bill Evans)
TTITLE3=Invention #4 d-moll BWV 775 (inspired by Oscar Peterson)
TTITLE4=Invention #5 Es-dur BWV 776 (inspired by Scott Joplin)
TTITLE5=Invention #6 E-dur BWV 777 (inspired by Chick Corea)
TTITLE6=Invention #7 e-moll BWV 778 (inspired by Eroll Gardner)
TTITLE7=Invention #9 f-moll BWV 780 (inspired by Kenny Kirkland)
TTITLE8=Invention #10 c-moll BWV 781 (inspired by Michael Camilo)
TTITLE9=Invention #11 g-moll BWV 782 (inspired by Chick Corea)
TTITLE10=Invention #12 A-dur BWV 783 (inspired by Herbie Hancock)
TTITLE11=Invention #13 a-moll BWV 784 (inspired by Jackues Loussier
TTITLE12=Invention #8 F-dur BWV 779 (inspired by Oscar Peterson)
TTITLE13=Invention #14 B-dur BWV 785 (inspired by Dave Brubeck)
TTITLE14=Invention #15 h-moll BWV 786 (inspired by George Shearing)
EXTD=YEAR: 2005
EXTT0=
EXTT1=
EXTT2=
EXTT3=
EXTT4=
EXTT5=
EXTT6=
EXTT7=
EXTT8=
EXTT9=
EXTT10=
EXTT11=
EXTT12=
EXTT13=
EXTT14=
PLAYORDER=
